<svg viewBox="0 0 800 500" preserveAspectRatio="none" xmlns="http://www.w3.org/2000/svg" xmlns:xlink="http://www.w3.org/1999/xlink" width="100%" id="blobSvg">
  <g transform="translate(-271, -80)">
    <defs>
      <linearGradient id="gradient" x1="0%" y1="0%" x2="0%" y2="100%">
        <stop offset="0%" style="stop-color: rgb(238, 205, 163);"></stop>
        <stop offset="100%" style="stop-color: rgb(239, 98, 159);"></stop>
      </linearGradient>
    </defs>
    <path class="blob" d="M277.5,344Q141,438,181,318.5Q221,199,317.5,224.5Q414,250,277.5,344Z" fill="url(#gradient)"></path>
  </g>
  <g transform="translate(351, 177)">
    <defs>
      <linearGradient id="gradient" x1="0%" y1="0%" x2="0%" y2="100%">
        <stop offset="0%" style="stop-color: rgb(238, 205, 163);"></stop>
        <stop offset="100%" style="stop-color: rgb(239, 98, 159);"></stop>
      </linearGradient>
    </defs>
    <path class="blob" d="M277.5,344Q141,438,181,318.5Q221,199,317.5,224.5Q414,250,277.5,344Z" fill="url(#gradient)"></path>
  </g>
  <g transform="translate(-264, -245)">
    <defs>
      <linearGradient id="gradient" x1="0%" y1="0%" x2="0%" y2="100%">
        <stop offset="0%" style="stop-color: rgb(238, 205, 163);"></stop>
        <stop offset="100%" style="stop-color: rgb(239, 98, 159);"></stop>
      </linearGradient>
    </defs>
    <path class="blob" d="M277.5,344Q141,438,181,318.5Q221,199,317.5,224.5Q414,250,277.5,344Z" fill="url(#gradient)"></path>
  </g>
</svg>